<svg xmlns="http://www.w3.org/2000/svg" viewBox="0 0 492.137 492.137">
	<path
		fill="white"
		d="M153.147 77.396c38.885-38.88 98.156-45.054 143.668-18.795l-11.98 11.979a11.997 11.997 0 00-2.615 13.094 12.003 12.003 0 0011.1 7.399l53.076-.022c6.627 0 12.012-5.389 12.012-12.003V25.991c0-4.891-2.918-9.254-7.393-11.105-4.52-1.852-9.667-.826-13.099 2.607l-17.144 17.15C261.856-4.1 181.702 2.403 129.927 54.176c-6.418 6.414-6.418 16.806 0 23.221 6.413 6.412 16.802 6.412 23.22-.001zM346.797 414.734c-38.886 38.878-98.158 45.054-143.668 18.792l11.98-11.978a12 12 0 002.616-13.094 12.017 12.017 0 00-11.102-7.399l-53.076.024c-6.626 0-12.011 5.388-12.011 12.002v53.057c0 4.891 2.917 9.253 7.393 11.105 4.518 1.852 9.667.826 13.099-2.607l17.143-17.15c25.223 16.582 54.332 24.887 83.452 24.887 38.89 0 77.775-14.809 107.395-44.419 6.417-6.415 6.417-16.807 0-23.22-6.415-6.416-16.803-6.416-23.221 0zM188.888 331.977c3.273-3.293 5.083-7.664 5.083-12.291V135.952c0-9.583-7.808-17.384-17.396-17.384H17.4c-9.598 0-17.4 7.801-17.4 17.384v220.209c0 9.598 7.803 17.398 17.4 17.398h122.708c4.647 0 9.014-1.813 12.297-5.108l36.483-36.474zm-29.699-178.625v148.951h-19.081c-9.588 0-17.4 7.801-17.4 17.383v19.074H34.78V153.352h124.409zM474.736 118.568H315.541c-9.588 0-17.381 7.801-17.381 17.384v220.209c0 9.598 7.793 17.398 17.381 17.398h122.713c4.648 0 9.01-1.813 12.298-5.108l36.496-36.475c3.273-3.293 5.089-7.664 5.089-12.291V135.952c0-9.583-7.813-17.384-17.401-17.384zm-17.4 34.784v148.951h-19.082c-9.593 0-17.386 7.801-17.386 17.383v19.074h-87.927V153.352h124.395z" />
</svg>